0
SECTION
2
HEADER
9
$INSUNITS
70
1
9
$ACADVER
1
AC1014
9
$HANDSEED
5
FFFF
0
ENDSEC
0
SECTION
2
TABLES
0
TABLE
2
VPORT
5
8
100
AcDbSymbolTable
0
ENDTAB
0
TABLE
2
LTYPE
5
5
100
AcDbSymbolTable
0
LTYPE
5
14
100
AcDbSymbolTableRecord
100
AcDbLinetypeTableRecord
2
BYBLOCK
70
0
0
LTYPE
5
15
100
AcDbSymbolTableRecord
100
AcDbLinetypeTableRecord
2
BYLAYER
70
0
0
ENDTAB
0
TABLE
2
LAYER
5
2
100
AcDbSymbolTable
70
2
0
LAYER
5
50
100
AcDbSymbolTableRecord
100
AcDbLayerTableRecord
2
0
70
0
6
CONTINUOUS
0
ENDTAB
0
TABLE
2
STYLE
5
3
100
AcDbSymbolTable
70
1
0
STYLE
5
11
100
AcDbSymbolTableRecord
100
AcDbTextStyleTableRecord
2
STANDARD
70
0
0
ENDTAB
0
TABLE
2
VIEW
5
6
100
AcDbSymbolTable
70
0
0
ENDTAB
0
TABLE
2
UCS
5
7
100
AcDbSymbolTable
70
0
0
ENDTAB
0
TABLE
2
APPID
5
9
100
AcDbSymbolTable
70
2
0
APPID
5
12
100
AcDbSymbolTableRecord
100
AcDbRegAppTableRecord
2
ACAD
70
0
0
ENDTAB
0
TABLE
2
DIMSTYLE
5
A
100
AcDbSymbolTable
70
1
0
ENDTAB
0
TABLE
2
BLOCK_RECORD
5
1
100
AcDbSymbolTable
70
1
0
BLOCK_RECORD
5
1F
100
AcDbSymbolTableRecord
100
AcDbBlockTableRecord
2
*MODEL_SPACE
0
BLOCK_RECORD
5
1B
100
AcDbSymbolTableRecord
100
AcDbBlockTableRecord
2
*PAPER_SPACE
0
ENDTAB
0
ENDSEC
0
SECTION
2
BLOCKS
0
BLOCK
5
20
100
AcDbEntity
100
AcDbBlockBegin
2
*MODEL_SPACE
0
ENDBLK
5
21
100
AcDbEntity
100
AcDbBlockEnd
0
BLOCK
5
1C
100
AcDbEntity
100
AcDbBlockBegin
2
*PAPER_SPACE
0
ENDBLK
5
1D
100
AcDbEntity
100
AcDbBlockEnd
0
ENDSEC
0
SECTION
2
ENTITIES
0
LINE
5
100
100
AcDbEntity
8
0
100
AcDbLine
10
-0.68000000000000083
20
0
30
0
11
0
21
0
31
0
0
LINE
5
101
100
AcDbEntity
8
0
100
AcDbLine
10
0
20
-4.7119999999999989
30
0
11
-0.68000000000000083
21
-4.7119999999999989
31
0
0
LINE
5
102
100
AcDbEntity
8
0
100
AcDbLine
10
-0.68000000000000083
20
-4.7119999999999989
30
0
11
-0.68000000000000083
21
-4.8609999999999989
31
0
0
LINE
5
103
100
AcDbEntity
8
0
100
AcDbLine
10
-0.68000000000000083
20
-4.8609999999999989
30
0
11
0.069999999999999105
21
-4.8609999999999989
31
0
0
LINE
5
104
100
AcDbEntity
8
0
100
AcDbLine
10
0.069999999999999105
20
-4.8609999999999989
30
0
11
0.069999999999999105
21
0.15899999999999995
31
0
0
LINE
5
105
100
AcDbEntity
8
0
100
AcDbLine
10
0.069999999999999105
20
0.15899999999999995
30
0
11
-0.68000000000000083
21
0.15899999999999997
31
0
0
LINE
5
106
100
AcDbEntity
8
0
100
AcDbLine
10
-0.68000000000000083
20
0.15899999999999997
30
0
11
-0.68000000000000083
21
0
31
0
0
LINE
5
107
100
AcDbEntity
8
0
100
AcDbLine
10
0.069999999999999105
20
0.15899999999999995
30
0
11
-13.382999999999999
21
0.15899999999999997
31
0
0
LINE
5
108
100
AcDbEntity
8
0
100
AcDbLine
10
-13.382999999999999
20
0.15899999999999997
30
0
11
-13.382999999999999
21
-4.8609999999999989
31
0
0
LINE
5
109
100
AcDbEntity
8
0
100
AcDbLine
10
-13.382999999999999
20
-4.8609999999999989
30
0
11
0.069999999999999105
21
-4.8609999999999989
31
0
0
LINE
5
110
100
AcDbEntity
8
0
100
AcDbLine
10
0.069999999999999105
20
-4.8609999999999989
30
0
11
0.069999999999999105
21
0.15899999999999995
31
0
0
LINE
5
111
100
AcDbEntity
8
0
100
AcDbLine
10
-10.805090119302534
20
-4.9009999999999989
30
0
11
-2.5079098806974671
21
0.19899999999999998
31
0
0
LINE
5
112
100
AcDbEntity
8
0
100
AcDbLine
10
-2.5079098806974671
20
-4.9009999999999989
30
0
11
-10.805090119302532
21
0.19899999999999998
31
0
0
LINE
5
113
100
AcDbEntity
8
0
100
AcDbLine
10
0.069999999999999105
20
-4.8609999999999989
30
0
11
-13.382999999999999
21
-4.8609999999999989
31
0
0
LINE
5
114
100
AcDbEntity
8
0
100
AcDbLine
10
-13.406499999999998
20
-4.9009999999999989
30
0
11
0.093499999999997627
21
-4.9009999999999989
31
0
0
LINE
5
115
100
AcDbEntity
8
0
100
AcDbLine
10
0.069999999999999105
20
0.15899999999999995
30
0
11
-13.382999999999999
21
0.15899999999999997
31
0
0
LINE
5
116
100
AcDbEntity
8
0
100
AcDbLine
10
-13.406499999999998
20
0.19899999999999998
30
0
11
0.093499999999997627
21
0.19899999999999998
31
0
0
LINE
5
117
100
AcDbEntity
8
0
100
AcDbLine
10
0.093499999999997627
20
-4.9009999999999989
30
0
11
0.093499999999997627
21
0.19899999999999998
31
0
0
LINE
5
118
100
AcDbEntity
8
0
100
AcDbLine
10
-13.406499999999998
20
-4.9009999999999989
30
0
11
-13.406499999999998
21
0.19899999999999998
31
0
0
LINE
5
119
100
AcDbEntity
8
0
100
AcDbLine
10
0.093499999999997627
20
-4.9009999999999989
30
0
11
-13.406499999999998
21
-4.9009999999999989
31
0
0
LINE
5
120
100
AcDbEntity
8
0
100
AcDbLine
10
-13.406499999999998
20
-4.9009999999999989
30
0
11
-13.406499999999998
21
-5.4009999999999989
31
0
0
LINE
5
121
100
AcDbEntity
8
0
100
AcDbLine
10
-12.656499999999998
20
-6.1510000000000007
30
0
11
-0.65650000000000008
21
-6.150999999999998
31
0
0
LINE
5
122
100
AcDbEntity
8
0
100
AcDbLine
10
0.093499999999997627
20
-5.4009999999999989
30
0
11
0.093499999999997627
21
-4.9009999999999989
31
0
0
LINE
5
123
100
AcDbEntity
8
0
100
AcDbLine
10
0.093499999999997627
20
-5.4009999999999989
30
0
11
0.093499999999997627
21
1.5990000000000013
31
0
0
LINE
5
124
100
AcDbEntity
8
0
100
AcDbLine
10
-0.65650000000000241
20
2.3490000000000002
30
0
11
-12.656499999999998
21
2.3490000000000006
31
0
0
LINE
5
125
100
AcDbEntity
8
0
100
AcDbLine
10
-13.406499999999998
20
0.19899999999999998
30
0
11
-13.406499999999998
21
1.5990000000000006
31
0
0
CIRCLE
5
126
100
AcDbEntity
8
0
100
AcDbCircle
10
-6.6565000000000003
20
-5.5259999999999989
30
0
40
0.43749999999999967
0
CIRCLE
5
127
100
AcDbEntity
8
0
100
AcDbCircle
10
-6.6565000000000003
20
-5.5259999999999989
30
0
40
0.2824999999999997
0
ARC
5
128
100
AcDbEntity
8
0
100
AcDbCircle
10
-0.65650000000000097
20
-5.4009999999999998
30
0
40
0.74999999999999833
100
AcDbArc
50
-89.999999999999943
51
0
0
ARC
5
129
100
AcDbEntity
8
0
100
AcDbCircle
10
-0.6565000000000013
20
1.5990000000000013
30
0
40
0.74999999999999889
100
AcDbArc
50
0
51
90.000000000000099
0
ARC
5
130
100
AcDbEntity
8
0
100
AcDbCircle
10
-12.656499999999994
20
-5.4009999999999971
30
0
40
0.75000000000000322
100
AcDbArc
50
180
51
269.99999999999972
0
ARC
5
131
100
AcDbEntity
8
0
100
AcDbCircle
10
-12.656499999999998
20
1.5990000000000004
30
0
40
0.75000000000000033
100
AcDbArc
50
90
51
180
0
ENDSEC
0
SECTION
2
OBJECTS
0
DICTIONARY
5
C
100
AcDbDictionary
3
ACAD_GROUP
350
D
3
ACAD_MLINESTYLE
350
17
0
DICTIONARY
5
D
100
AcDbDictionary
0
DICTIONARY
5
1A
330
C
100
AcDbDictionary
0
DICTIONARY
5
17
100
AcDbDictionary
0
ENDSEC
0
EOF
